<?xml version="1.0" encoding="UTF-8"?>
<svg xmlns="http://www.w3.org/2000/svg" viewBox="0 0 128 128">
  <title>풀카본슈트 - Full Carbon Suit (emoji)</title>
  <defs>
    <linearGradient id="g1" x1="0" y1="0" x2="0" y2="1">
      <stop offset="0" stop-color="#2d2d2f"/>
      <stop offset="1" stop-color="#1e1e20"/>
    </linearGradient>
    <linearGradient id="g2" x1="0" y1="0" x2="1" y2="1">
      <stop offset="0" stop-color="#0a0a0a"/>
      <stop offset="1" stop-color="#121212"/>
    </linearGradient>
    <filter id="soft" x="-20%" y="-20%" width="140%" height="140%">
      <feDropShadow dx="0" dy="0.5" stdDeviation="0.6" flood-color="#000" flood-opacity="0.35"/>
    </filter>
    <style>
      .body { fill: url(#g1); stroke: #3a3a3d; stroke-width: 1.2; }
      .panel { fill: none; stroke: #3f3f42; stroke-width: 0.9; opacity: .8; }
      .dark { fill: #1a1a1c; }
    </style>
  </defs>

  <!-- Shadow -->
  <ellipse cx="64" cy="118" rx="22" ry="5" fill="#000" opacity=".18"/>

  <!-- Boots -->
  <g filter="url(#soft)">
    <rect x="40" y="102" width="16" height="14" rx="3" class="body"/>
    <rect x="72" y="102" width="16" height="14" rx="3" class="body"/>
    <rect x="38" y="110" width="20" height="6" rx="3" class="dark"/>
    <rect x="70" y="110" width="20" height="6" rx="3" class="dark"/>
  </g>

  <!-- Legs -->
  <g filter="url(#soft)">
    <rect x="42" y="72" width="12" height="32" rx="6" class="body"/>
    <rect x="74" y="72" width="12" height="32" rx="6" class="body"/>
    <path d="M48 74 v28" class="panel"/>
    <path d="M80 74 v28" class="panel"/>
  </g>

  <!-- Belt -->
  <g filter="url(#soft)">
    <rect x="44" y="64" width="40" height="10" rx="5" class="body"/>
    <circle cx="64" cy="69" r="6" class="dark"/>
  </g>

  <!-- Torso -->
  <g filter="url(#soft)">
    <rect x="40" y="40" width="48" height="28" rx="10" class="body"/>
    <path d="M44 44 h40 v4 H44z M44 52 h40 v4 H44z" class="panel"/>
  </g>

  <!-- Arms -->
  <g filter="url(#soft)">
    <rect x="28" y="44" width="12" height="28" rx="6" class="body"/>
    <rect x="88" y="44" width="12" height="28" rx="6" class="body"/>
    <rect x="26" y="70" width="14" height="10" rx="5" class="body"/>
    <rect x="88" y="70" width="14" height="10" rx="5" class="body"/>
  </g>

  <!-- Neck ring -->
  <rect x="50" y="34" width="28" height="8" rx="4" class="body" filter="url(#soft)"/>

  <!-- Helmet -->
  <g filter="url(#soft)">
    <ellipse cx="64" cy="26" rx="18" ry="14" class="body"/>
    <path d="M54 20 h20 a10 10 0 0 1 10 10 v4 H44 v-4 a10 10 0 0 1 10-10z" fill="url(#g2)"/>
    <!-- visor highlight -->
    <path d="M56 22 c6-4 18-4 24 0" fill="none" stroke="#2a2a2a" stroke-width="2" stroke-linecap="round" opacity=".6"/>
  </g>

</svg>
